<?xml version="1.0" encoding="utf-8"?>
<svg xmlns="http://www.w3.org/2000/svg" xmlns:xlink="http://www.w3.org/1999/xlink" width="54.73" height="41.027" viewBox="0 0 54.73 41.027">
  <defs>
    <clipPath id="clip-path">
      <rect id="Rectangle_89" data-name="Rectangle 89" width="54.73" height="41.027" fill="none"/>
    </clipPath>
  </defs>
  <g id="Group_40" data-name="Group 40" transform="translate(0 0)">
    <path id="Path_8" data-name="Path 8" d="M49.867,0,0,8.792V28.135l49.867-8.793Z" transform="translate(0)" fill="#fff"/>
    <path id="Path_9" data-name="Path 9" d="M189.436,185.234v19.343l39-6.877V178.357Z" transform="translate(-173.709 -163.55)" fill="#fff"/>
    <path id="Path_10" data-name="Path 10" d="M47.992,144.328,46,144.679V132.693l4.833-.852v1.927l-2.841.5V137.6l2.649-.467v1.927l-2.649.467Z" transform="translate(-42.181 -120.896)" fill="#0b2812"/>
    <g id="Group_39" data-name="Group 39" transform="translate(0 -0.001)">
      <g id="Group_38" data-name="Group 38" clip-path="url(#clip-path)">
        <path id="Path_11" data-name="Path 11" d="M126.482,114.909v7.756a5.991,5.991,0,0,1-.871,3.421,3.673,3.673,0,0,1-2.516,1.571,2.453,2.453,0,0,1-2.45-.687,4.791,4.791,0,0,1-.841-3.16v-7.723l1.992-.351v7.887q0,2.287,1.365,2.047a1.358,1.358,0,0,0,.982-.755,3.627,3.627,0,0,0,.347-1.717V115.26Z" transform="translate(-109.858 -105.369)" fill="#0b2812"/>
        <path id="Path_12" data-name="Path 12" d="M218.8,111.68l-2,.353V102.005l-2.066.364V100.41l6.132-1.081v1.96l-2.066.364Z" transform="translate(-196.911 -91.083)" fill="#0b2812"/>
        <path id="Path_13" data-name="Path 13" d="M309.755,82.593v7.756a5.99,5.99,0,0,1-.871,3.421,3.673,3.673,0,0,1-2.516,1.571,2.452,2.452,0,0,1-2.45-.687,4.791,4.791,0,0,1-.841-3.16V83.77l1.992-.351v7.887q0,2.287,1.365,2.047a1.358,1.358,0,0,0,.982-.755,3.628,3.628,0,0,0,.347-1.717V82.944Z" transform="translate(-277.916 -75.736)" fill="#0b2812"/>
        <path id="Path_14" data-name="Path 14" d="M404.92,80.1v4.665l-2.007.354V73.131l2.627-.463a2.774,2.774,0,0,1,2.461.443,3.366,3.366,0,0,1,.793,2.541,4.184,4.184,0,0,1-1.38,3.416l2.073,4.89-2.147.379-1.7-4.365Zm0-1.919.517-.091a1.411,1.411,0,0,0,1.018-.626,2.632,2.632,0,0,0,.31-1.387,1.79,1.79,0,0,0-.328-1.25,1.091,1.091,0,0,0-1.015-.211l-.5.088Z" transform="translate(-369.463 -66.558)" fill="#0b2812"/>
        <path id="Path_15" data-name="Path 15" d="M500.957,64.4l-4.863.857V53.271l4.863-.857V54.34l-2.856.5V57.7l2.649-.467v1.935l-2.649.467v3.321l2.856-.5Z" transform="translate(-454.909 -48.062)" fill="#0b2812"/>
        <path id="Path_16" data-name="Path 16" d="M239.5,296.716l-2,.353V287.042l-2.066.364v-1.959l6.132-1.081v1.959l-2.066.364Z" transform="translate(-215.89 -260.757)" fill="#0b2812"/>
        <path id="Path_17" data-name="Path 17" d="M326.113,282.679v4.665l-2.007.354V275.711l2.627-.463a2.774,2.774,0,0,1,2.461.443,3.366,3.366,0,0,1,.793,2.541,4.184,4.184,0,0,1-1.38,3.416l2.074,4.89-2.147.379-1.7-4.364Zm0-1.919.517-.091a1.411,1.411,0,0,0,1.018-.626,2.634,2.634,0,0,0,.31-1.387,1.789,1.789,0,0,0-.328-1.25,1.091,1.091,0,0,0-1.015-.211l-.5.088Z" transform="translate(-297.199 -252.32)" fill="#0b2812"/>
        <path id="Path_18" data-name="Path 18" d="M419.238,273.285V261.3l1.889-.333v11.987Z" transform="translate(-384.433 -239.3)" fill="#0b2812"/>
        <path id="Path_19" data-name="Path 19" d="M461.93,250.995l2.752-.485a3.125,3.125,0,0,1,2.45.294,2.6,2.6,0,0,1,.767,2.173,3.847,3.847,0,0,1-.406,1.814,2.108,2.108,0,0,1-1.107,1.044v.082a1.674,1.674,0,0,1,1.321.718,3.272,3.272,0,0,1,.406,1.781,4.4,4.4,0,0,1-.786,2.693,3.28,3.28,0,0,1-2.151,1.3l-3.247.572Zm1.889,4.488.922-.163a1.228,1.228,0,0,0,.893-.535,2.24,2.24,0,0,0,.258-1.169,1.365,1.365,0,0,0-.3-1.018,1.057,1.057,0,0,0-.93-.16l-.849.15Zm0,1.861V260.7l1.011-.178a1.32,1.32,0,0,0,.934-.591,2.563,2.563,0,0,0,.306-1.374q0-1.607-1.269-1.383Z" transform="translate(-423.581 -229.621)" fill="#0b2812"/>
        <path id="Path_20" data-name="Path 20" d="M559.528,242.757l-4.863.857V231.628l4.863-.857V232.7l-2.856.5v2.853l2.649-.467v1.935l-2.649.467v3.321l2.856-.5Z" transform="translate(-508.617 -211.612)" fill="#0b2812"/>
      </g>
    </g>
  </g>
</svg>
